#!OML:ASF H:\Terrain\Patient Classification 1\Terrain2\Thursday\justin.ASF
:FULLY-SPECIFIED
:DEGREES
2029
root 9.12812 20.8979 -11.2452 -0.845864 24.3814 -9.71969
lowerback 18.7918 2.11314 0.670476
upperback 5.40245 3.18726 3.53412
thorax -4.86008 1.58883 2.66168
lowerneck -10.4407 -8.1576 -12.3944
upperneck 25.9767 -11.1798 9.1398
head 11.3984 -5.23738 3.92756
rclavicle 2.22639e-014 -7.25564e-015
rhumerus -32.6279 -10.6635 -73.5856
rradius 69.0833
rwrist -21.6187
rhand -31.8339 17.6023
rfingers 7.12502
rthumb -5.08836 -12.3166
lclavicle 2.22639e-014 -7.25564e-015
lhumerus -46.1274 2.68915 77.3119
lradius 46.7128
lwrist 8.48462
lhand -24.2119 19.891
lfingers 7.12502
lthumb 2.27275 49.8586
rfemur -61.7919 -40.6754 18.5943
rtibia 131.709
rfoot -24.7735 9.7381
rtoes -6.10226
lfemur -9.9786 -1.79586 -13.0558
ltibia 23.4344
lfoot -13.2332 -6.22885
ltoes 6.52127
2030
root 9.10931 20.9191 -11.1958 -1.00429 24.8675 -10.0772
lowerback 19.0651 2.20536 0.937463
upperback 5.42877 3.36405 3.50308
thorax -4.96677 1.67445 2.42841
lowerneck -10.341 -8.39834 -12.3149
upperneck 25.7773 -11.607 9.40133
head 11.3703 -5.39797 3.94452
rclavicle 8.43841e-014 -2.65378e-014
rhumerus -33.0421 -11.2848 -73.5122
rradius 69.6425
rwrist -21.733
rhand -31.6485 17.5445
rfingers 7.12502
rthumb -4.90931 -12.3786
lclavicle 8.43841e-014 -2.65378e-014
lhumerus -46.4999 1.73233 77.6594
lradius 48.1003
lwrist 9.39532
lhand -25.0215 20.0616
lfingers 7.12502
lthumb 1.49081 50.0362
rfemur -62.707 -41.0772 19.1411
rtibia 132.595
rfoot -25.0967 9.95727
rtoes -6.09573
lfemur -9.8598 -1.81908 -12.5405
ltibia 23.2752
lfoot -13.2374 -6.6607
ltoes 6.82193
2031
root 9.08243 20.9292 -11.1484 -1.26391 25.4815 -10.5831
lowerback 19.4115 2.26375 1.20272
upperback 5.47601 3.5096 3.60348
thorax -5.09459 1.7449 2.3411
lowerneck -10.2859 -8.64427 -12.2797
upperneck 25.5546 -11.9904 9.54158
head 11.3326 -5.55542 3.92782
rclavicle -5.59579e-014 7.55382e-015
rhumerus -33.2865 -11.8008 -73.3577
rradius 69.9722
rwrist -21.9414
rhand -31.6338 18.268
rfingers 7.12502
rthumb -4.89515 -11.6554
lclavicle -5.59579e-014 7.55382e-015
lhumerus -46.777 1.34234 77.7857
lradius 49.3066
lwrist 9.02923
lhand -24.1592 19.9413
lfingers 7.12502
lthumb 2.32361 49.9084
rfemur -63.026 -41.7241 19.5366
rtibia 133.535
rfoot -25.693 10.3466
rtoes -6.40571
lfemur -9.84508 -1.76916 -11.8716
ltibia 23.2307
lfoot -13.2264 -7.22384
ltoes 7.0856
2032
root 9.05817 20.9378 -11.0984 -1.3159 26.2486 -10.7138
lowerback 19.6336 2.23136 1.01534
upperback 5.50652 3.44811 3.7097
thorax -5.19346 1.71692 2.56935
lowerneck -10.1034 -8.76052 -12.4643
upperneck 25.3091 -12.1573 9.69602
head 11.2503 -5.63938 3.99127
rclavicle 5.2181e-015 -7.95139e-016
rhumerus -33.4064 -11.7091 -73.1945
rradius 70.1152
rwrist -22.2913
rhand -31.8596 18.9405
rfingers 7.12502
rthumb -5.11314 -10.9778
lclavicle 5.2181e-015 -7.95139e-016
lhumerus -47.2373 1.17958 78.1552
lradius 50.3483
lwrist 10.1065
lhand -26.1017 18.99
lfingers 7.12502
lthumb 0.447502 48.9692
rfemur -63.299 -42.8064 19.1126
rtibia 134.639
rfoot -25.8396 11.6657
rtoes -5.37184
lfemur -10.0016 -1.82582 -11.6177
ltibia 23.3831
lfoot -13.2725 -7.66855
ltoes 5.96275
2033
root 9.03368 20.9447 -11.044 -1.13579 27.0072 -10.6894
lowerback 19.683 2.13729 0.550606
upperback 5.50864 3.25 3.85571
thorax -5.2423 1.62433 3.03687
lowerneck -9.9393 -8.7712 -12.8845
upperneck 24.9746 -12.1465 9.95159
head 11.1396 -5.65543 4.1567
rclavicle 2.58917e-014 -1.36167e-014
rhumerus -33.3482 -11.1943 -73.0347
rradius 70.2405
rwrist -22.7467
rhand -32.2609 19.021
rfingers 7.12502
rthumb -5.50064 -10.8876
lclavicle 2.58917e-014 -1.36167e-014
lhumerus -47.8691 1.59568 78.2351
lradius 51.4626
lwrist 10.0212
lhand -26.5789 18.3628
lfingers 7.12502
lthumb -0.013334 48.3426
rfemur -63.5918 -44.1388 18.2959
rtibia 135.786
rfoot -25.647 13.9394
rtoes -0.896315
lfemur -10.3842 -1.80062 -11.5126
ltibia 23.6349
lfoot -13.2578 -8.03761
ltoes 4.11806
2034
root 9.00435 20.9506 -10.9885 -1.1687 27.7258 -11.0906
lowerback 19.444 2.09641 0.393231
upperback 5.73001 3.17835 4.13926
thorax -4.89972 1.59156 3.45821
lowerneck -9.87097 -8.88214 -13.2252
upperneck 24.4601 -12.2688 10.2003
head 10.9933 -5.72313 4.27789
rclavicle 1.41634e-015 1.88348e-014
rhumerus -32.9884 -11.119 -72.7812
rradius 70.3581
rwrist -23.1415
rhand -32.7342 19.0436
rfingers 7.12502
rthumb -5.95761 -10.8527
lclavicle 1.41634e-015 1.88348e-014
lhumerus -48.139 1.96232 78.3422
lradius 52.6424
lwrist 9.65148
lhand -25.7186 17.3106
lfingers 7.12502
lthumb 0.817562 47.2887
rfemur -64.5415 -44.999 19.3004
rtibia 136.524
rfoot -26.52 12.5308
rtoes -5.42257
lfemur -10.7874 -1.60177 -10.969
ltibia 23.8887
lfoot -13.1703 -8.50901
ltoes 2.73368
2035
root 8.97329 20.9669 -10.9354 -1.5185 28.4309 -11.8708
lowerback 19.8225 1.9979 0.950472
upperback 5.68988 3.17506 4.17076
thorax -5.11353 1.58893 3.16515
lowerneck -9.82693 -9.04116 -13.2551
upperneck 24.343 -12.5722 10.5326
head 11.0101 -5.83204 4.3569
rclavicle 6.35614e-014 3.99557e-014
rhumerus -33.2041 -11.466 -72.8674
rradius 70.6393
rwrist -23.27
rhand -33.0098 19.297
rfingers 7.12502
rthumb -6.22363 -10.5916
lclavicle 6.35614e-014 3.99557e-014
lhumerus -48.6983 1.59791 78.2153
lradius 54.0234
lwrist 9.94013
lhand -24.1408 16.154
lfingers 7.12502
lthumb 2.34139 46.1209
rfemur -65.0448 -45.5077 20.2244
rtibia 137.228
rfoot -27.0491 12.375
rtoes -7.54111
lfemur -11.1378 -1.24247 -10.0617
ltibia 24.3312
lfoot -13.1634 -9.11205
ltoes 1.81401
2036
root 8.94281 20.9836 -10.8799 -1.79388 29.1208 -12.4449
lowerback 20.3003 1.9563 1.47616
upperback 5.62132 3.23839 4.05724
thorax -5.40537 1.61661 2.71492
lowerneck -9.77017 -9.27712 -13.2022
upperneck 24.1899 -13.0325 10.9858
head 11.038 -5.99371 4.44142
rclavicle -1.48592e-014 4.47266e-014
rhumerus -33.5427 -11.9364 -73.0253
rradius 71.0063
rwrist -23.3835
rhand -33.0625 19.6894
rfingers 7.12502
rthumb -6.2746 -10.1977
lclavicle -1.48592e-014 4.47266e-014
lhumerus -49.1182 1.0346 78.0622
lradius 55.3626
lwrist 10.4749
lhand -23.1218 16.37
lfingers 7.12502
lthumb 3.32544 46.3238
rfemur -65.3428 -45.7384 20.6034
rtibia 137.968
rfoot -27.4421 12.8467
rtoes -8.34647
lfemur -11.5953 -0.626899 -9.39599
ltibia 25.0309
lfoot -13.1644 -9.82066
ltoes 1.89105
2037
root 8.9107 20.9849 -10.8237 -1.88671 29.8736 -12.6172
lowerback 20.7987 1.95443 1.62829
upperback 5.55077 3.27919 3.90084
thorax -5.72544 1.63382 2.43535
lowerneck -9.75014 -9.46696 -13.1584
upperneck 24.096 -13.4419 11.5007
head 11.0962 -6.12489 4.55794
rclavicle 2.44505e-014 -4.47266e-014
rhumerus -33.8554 -12.3313 -73.0799
rradius 71.2658
rwrist -23.6831
rhand -33.0302 19.7983
rfingers 7.12502
rthumb -6.2434 -10.0897
lclavicle 2.44505e-014 -4.47266e-014
lhumerus -49.4972 0.563081 77.9074
lradius 56.6151
lwrist 10.6516
lhand -22.5607 17.518
lfingers 7.12502
lthumb 3.86729 47.4626
rfemur -65.3603 -46.8585 20.2995
rtibia 138.794
rfoot -28.438 13.0879
rtoes -8.39495
lfemur -12.2041 0.00958329 -9.18139
ltibia 25.9311
lfoot -13.2762 -10.2124
ltoes 1.43809
2038
root 8.87553 20.9792 -10.7693 -2.14237 30.6479 -13.2106
lowerback 21.3031 1.81312 2.03608
upperback 5.42843 3.20674 3.87088
thorax -6.09446 1.59262 2.17496
lowerneck -9.75864 -9.50482 -13.1885
upperneck 24.1295 -13.6247 11.9991
head 11.181 -6.15892 4.71974
rclavicle 4.1546e-014 -2.5842e-014
rhumerus -34.0848 -12.5835 -73.1797
rradius 71.4612
rwrist -23.8607
rhand -33.0356 19.8059
rfingers 7.12502
rthumb -6.24854 -10.0819
lclavicle 4.1546e-014 -2.5842e-014
lhumerus -50.0957 0.3067 77.7283
lradius 57.9083
lwrist 10.7737
lhand -23.0205 18.5986
lfingers 7.12502
lthumb 3.42328 48.5508
rfemur -65.4661 -48.1164 20.5934
rtibia 139.551
rfoot -29.207 13.1985
rtoes -7.84838
lfemur -13.0217 0.68206 -8.58449
ltibia 27.0687
lfoot -13.3267 -10.2543
ltoes 0.731603
2039
root 8.83915 20.9717 -10.7138 -2.39419 31.3985 -13.8888
lowerback 21.7259 1.61548 2.36756
upperback 5.30393 3.05028 3.89324
thorax -6.42977 1.51063 2.04043
lowerneck -9.7094 -9.5406 -13.1607
upperneck 24.062 -13.7498 12.2609
head 11.1844 -6.19038 4.79314
rclavicle -3.94588e-014 -7.35503e-015
rhumerus -34.2559 -12.6434 -73.3639
rradius 71.6899
rwrist -24.0139
rhand -33.3223 20.3808
rfingers 7.12502
rthumb -6.52541 -9.49862
lclavicle -3.94588e-014 -7.35503e-015
lhumerus -50.7921 0.50694 77.2679
lradius 58.9773
lwrist 10.359
lhand -23.9497 18.2036
lfingers 7.12502
lthumb 2.52596 48.1684
rfemur -66.0889 -48.6892 21.4217
rtibia 140.225
rfoot -29.1911 13.6003
rtoes -6.87889
lfemur -14.0023 1.58206 -7.95862
ltibia 28.4691
lfoot -13.1438 -10.3946
ltoes 2.05195
